<svg width="85" height="80" viewBox="0 0 85 80" fill="none" xmlns="http://www.w3.org/2000/svg">
<rect width="85" height="80" transform="matrix(1 0 0 -1 0 80)" fill="#88E1F2"/>
<path d="M13.2686 46.7757V45.0935H11.6343V43.4112H10V38.3645H11.6343V36.6822H13.2686V35H21.4402V36.6822H14.903V38.3645H13.2686V43.4112H14.903V45.0935H18.1716V41.729H16.5373V40.0467H21.4402V46.7757H13.2686Z" fill="#21243D"/>
<path d="M24.7089 46.7757V45.0935H27.9775V36.6822H24.7089V35H34.5148V36.6822H31.2462V45.0935H34.5148V46.7757H24.7089Z" fill="#21243D"/>
<path d="M36.1491 46.7757V35H45.9551V36.6822H47.5894V41.729H44.3207V43.4112H45.9551V45.0935H47.5894V46.7757H42.6864V45.0935H41.0521V43.4112H39.4178V46.7757H36.1491ZM39.4178 41.729H42.6864V40.0467H44.3207V36.6822H39.4178V41.729Z" fill="#21243D"/>
<path d="M50.858 46.7757V35H54.1267V45.0935H60.6639V46.7757H50.858Z" fill="#21243D"/>
<path d="M63.9326 46.7757V45.0935H62.2983V43.4112H65.5669V45.0935H70.4699V41.729H63.9326V40.0467H62.2983V36.6822H63.9326V35H72.1042V36.6822H73.7385V38.3645H70.4699V36.6822H65.5669V40.0467H72.1042V41.729H73.7385V45.0935H72.1042V46.7757H63.9326Z" fill="#21243D"/>
<path d="M10.9222 65V53.2243H19.0938V54.9065H20.7281V56.5888H22.3624V61.6355H20.7281V63.3178H19.0938V65H10.9222ZM14.1908 63.3178H17.4595V61.6355H19.0938V56.5888H17.4595V54.9065H14.1908V63.3178Z" fill="#21243D"/>
<path d="M28.0148 65V63.3178H26.3805V54.9065H28.0148V53.2243H36.1864V54.9065H37.8208V63.3178H36.1864V65H28.0148ZM29.6492 63.3178H34.5521V54.9065H29.6492V63.3178Z" fill="#21243D"/>
<path d="M49.1046 65V63.3178H52.3733V54.9065H49.1046V53.2243H58.9106V54.9065H55.6419V63.3178H58.9106V65H49.1046Z" fill="#21243D"/>
<path d="M67.4627 65V54.9065H64.1941V53.2243H74V54.9065H70.7314V65H67.4627Z" fill="#21243D"/>
</svg>
